# Blender 3.4.1
# www.blender.org
o roadCornerSmall.001
v 20.900000 5.438118 -9.999998
v 20.900000 7.000000 -9.999998
v 20.900000 7.000001 -19.999998
v 20.900000 5.438119 -19.999998
v 20.900000 7.000000 0.000000
v 20.900000 5.438118 0.000000
v 20.900000 5.438117 19.999996
v 20.900000 6.999999 19.999996
v 20.900002 7.000000 9.999996
v 20.900002 5.438118 9.999996
v 20.900000 5.438119 -30.000000
v 20.900000 7.000001 -30.000000
v 20.900000 7.000002 -40.000000
v 20.900000 5.438120 -40.000000
v 21.082798 5.438118 -9.999998
v 21.082798 7.000000 -9.999998
v 21.082798 7.000001 -19.999998
v 21.082798 5.438119 -19.999998
v 21.082798 5.438117 19.999996
v 21.082798 6.999999 19.999996
v 21.082800 7.000000 9.999996
v 21.082800 5.438118 9.999996
v 21.082798 5.438119 -30.000000
v 21.082798 7.000001 -30.000000
v 21.082798 7.000002 -40.000000
v 21.082798 5.438120 -40.000000
v 21.082798 5.438118 0.000000
v 21.082798 7.000000 0.000000
vn -1.0000 -0.0000 -0.0000
vn 1.0000 -0.0000 -0.0000
vn -0.0000 1.0000 -0.0000
vn -0.0000 -1.0000 -0.0000
vn -0.0000 -0.0000 1.0000
vn -0.0000 -0.0000 -1.0000
vt 0.000000 0.000000
vt 2.000001 0.000000
vt 0.000001 1.000000
vt 2.000000 0.999999
vt 0.000001 1.000000
vt 2.000000 0.999999
vt 0.000000 0.000000
vt 2.000001 0.000000
vt 0.000001 1.000000
vt 2.000000 0.999999
vt 2.000001 0.000000
vt 0.000000 0.000000
vt 0.000000 0.000000
vt 0.000001 1.000000
vt 2.000000 0.999999
vt 0.000001 1.000000
vt 0.000000 0.000000
vt 2.000001 0.000000
vt 2.000001 0.000000
vt 0.000000 0.000000
vt 2.000000 0.999999
vt 0.000001 1.000000
vt 2.000000 0.999999
vt 2.000001 0.000000
vt 0.000000 0.000000
vt 2.000001 0.000000
vt 0.000001 1.000000
vt 2.000000 0.999999
vt 0.000001 1.000000
vt 2.000000 0.999999
vt 0.000000 0.000000
vt 2.000001 0.000000
vt 0.000000 0.000000
vt 0.000001 1.000000
vt 2.000000 0.999999
vt 0.000001 1.000000
vt 0.000000 0.000000
vt 2.000001 0.000000
vt 2.000001 0.000000
vt 0.000000 0.000000
vt 2.000000 0.999999
vt 0.000001 1.000000
vt 2.000000 0.999999
vt 2.000001 0.000000
vt 2.000001 0.000000
vt 0.000000 0.000000
vt 0.000001 1.000000
vt 2.000000 0.999999
s 0
f 4/7/1 12/21/1 11/19/1
f 12/21/1 4/7/1 3/5/1
f 1/1/1 3/6/1 4/8/1
f 3/6/1 1/1/1 2/3/1
f 6/12/1 2/4/1 1/2/1
f 2/4/1 6/12/1 5/9/1
f 10/17/1 5/10/1 6/11/1
f 5/10/1 10/17/1 9/16/1
f 7/13/1 9/15/1 10/18/1
f 9/15/1 7/13/1 8/14/1
f 11/20/1 13/23/1 14/24/1
f 13/23/1 11/20/1 12/22/1
f 18/31/2 23/39/2 24/41/2
f 24/41/2 17/29/2 18/31/2
f 15/25/2 18/32/2 17/30/2
f 17/30/2 16/27/2 15/25/2
f 27/46/2 15/26/2 16/28/2
f 16/28/2 28/47/2 27/46/2
f 22/37/2 27/45/2 28/48/2
f 28/48/2 21/36/2 22/37/2
f 19/33/2 22/38/2 21/35/2
f 21/35/2 20/34/2 19/33/2
f 23/40/2 26/44/2 25/43/2
f 25/43/2 24/42/2 23/40/2
f 12/21/3 3/5/3 17/29/3 24/41/3
f 10/17/4 6/11/4 27/45/4 22/37/4
f 3/6/3 2/3/3 16/27/3 17/30/3
f 4/7/4 11/19/4 23/39/4 18/31/4
f 1/1/4 4/8/4 18/32/4 15/25/4
f 13/23/3 12/22/3 24/42/3 25/43/3
f 2/4/3 5/9/3 28/47/3 16/28/3
f 11/20/4 14/24/4 26/44/4 23/40/4
f 8/14/5 7/13/5 19/33/5 20/34/5
f 6/12/4 1/2/4 15/26/4 27/46/4
f 9/15/3 8/14/3 20/34/3 21/35/3
f 14/24/6 13/23/6 25/43/6 26/44/6
f 7/13/4 10/18/4 22/38/4 19/33/4
f 5/10/3 9/16/3 21/36/3 28/48/3
