# Blender 3.4.1
# www.blender.org
o Cube
v -10.000000 -10.000000 10.000000
v -10.000000 10.000000 10.000000
v -10.000000 -10.000000 -10.000000
v -10.000000 10.000000 -10.000000
v 10.000000 -10.000000 10.000000
v 10.000000 10.000000 10.000000
v 10.000000 -10.000000 -10.000000
v 10.000000 10.000000 -10.000000
vn -0.0000 -1.0000 -0.0000
vn -0.0000 -0.0000 -1.0000
vn 1.0000 -0.0000 -0.0000
vn -0.0000 1.0000 -0.0000
vn -1.0000 -0.0000 -0.0000
vn -0.0000 -0.0000 1.0000
vt 0.500000 0.000000
vt 0.750000 0.333333
vt 0.500000 1.000000
vt 0.750000 0.666667
vt 0.500000 0.333333
vt 0.500000 0.666667
vt 0.250000 0.000000
vt 0.000000 0.333333
vt 1.000000 0.333333
vt 0.250000 1.000000
vt 1.000000 0.666667
vt 0.000000 0.666667
vt 0.250000 0.333333
vt 0.250000 0.666667
s 0
f 3/5/1 5/7/1 1/1/1
f 8/14/2 3/5/2 4/6/2
f 6/12/3 7/13/3 8/14/3
f 8/14/4 2/3/4 6/10/4
f 4/6/5 1/2/5 2/4/5
f 2/4/6 5/9/6 6/11/6
f 3/5/1 7/13/1 5/7/1
f 8/14/2 7/13/2 3/5/2
f 6/12/3 5/8/3 7/13/3
f 8/14/4 4/6/4 2/3/4
f 4/6/5 3/5/5 1/2/5
f 2/4/6 1/2/6 5/9/6
